<?xml version="1.0" encoding="UTF-8"?>
<svg viewBox="0 0 752 752" xmlns="http://www.w3.org/2000/svg">
  <circle cx="376" cy="376" r="350" fill="white" />
  <g transform="translate(-376,-376) scale(2,2)">
      <path d="m377.37 264.57c-5.9102-4.3633-14.086-3.918-19.484 1.0664l-21.176 19.547c-6.0039 5.543-15.367 5.168-20.91-0.83984-5.5469-6.0039-5.1719-15.367 0.83594-20.91l21.172-19.547c15.832-14.613 39.812-15.926 57.145-3.125 22.684 16.746 24.504 50.008 3.7852 69.133l-9.4531 8.7227c-3.5742 3.3008-6.1133 7.5039-7.3945 12.102l144.68 95.387c28.598 18.855 15.246 63.363-19.012 63.363h-268.29c-33.426 0-47.352-42.754-20.336-62.441l132.93-96.871c1.7344-12.695 7.8281-24.492 17.359-33.289l9.4492-8.7227c7.0664-6.5234 6.4453-17.863-1.2891-23.574zm-10.809 91.492-130.21 94.887c-3.8594 2.8125-1.8672 8.918 2.9062 8.918h268.29c1.5391 0 2.4453-0.44922 3.0469-0.92969 0.70312-0.55469 1.3359-1.4414 1.6797-2.582 0.34375-1.1406 0.30078-2.2344 0.023437-3.082-0.24219-0.73438-0.75-1.6094-2.0352-2.457z" fill-rule="evenodd" stroke="white" stroke-width="5" />
  </g>
  <path d="M 119,119 L 629,629" stroke="white" stroke-width="100" />
  <circle cx="376" cy="376" r="350" fill="none" stroke="white" stroke-width="100" />
  <circle cx="376" cy="376" r="350" fill="none" stroke="red" stroke-width="35" />
  <path d="M 120,120 L 629,629" stroke="red" stroke-width="35" />
</svg>
